<svg width="320" height="171" viewBox="0 0 320 171" fill="none" xmlns="http://www.w3.org/2000/svg">
<path d="M118.397 142.071C118.397 133.242 124.05 127.301 131.021 127.301C133.378 127.301 135.74 128.353 137.223 129.966V119.859L132.066 116.308V115.974L145.345 111.7V152.567H149.345V154.342L137.218 156.84V153.506C135.463 155.508 132.717 156.948 129.81 156.948C123.72 156.954 118.397 151.736 118.397 142.071ZM134.034 153.122C135.074 153.122 136.172 152.901 137.218 152.011V131.521C136.338 130.744 135.239 130.463 134.199 130.463C130.359 130.463 127.448 134.737 127.448 142.011C127.448 148.622 130.306 153.122 134.034 153.122Z" fill="black"/>
<path d="M157.248 142.351C157.248 133.134 164.437 127.306 171.572 127.306C178.484 127.306 183.481 131.084 184.964 138.687H165.482C165.535 145.961 169.375 151.622 175.631 151.622C179.252 151.622 183.257 149.512 184.356 144.79H185.945C184.681 152.896 179.524 156.949 171.732 156.949C162.677 156.954 157.248 150.57 157.248 142.351ZM165.589 136.35H175.961C175.796 131.186 173.988 129.189 171.242 129.189C168.165 129.189 166.079 131.801 165.589 136.35Z" fill="black"/>
<path d="M216.674 147.402C216.674 150.3 215.25 152.761 212.882 154.445C211.831 155.205 210.583 155.804 209.197 156.231C207.688 156.7 206.008 156.948 204.216 156.948C201.528 156.948 199.112 156.56 196.206 155.621L195.326 145.729H196.542L200.707 152.615C202.189 155.065 203.565 154.844 205.154 154.844C207.677 154.844 209.869 153.344 209.869 150.786C209.869 148.568 208.61 146.841 205.64 146.183L202.733 145.514C200.611 145.039 198.835 144.046 197.582 142.621C197.006 141.984 196.531 141.267 196.184 140.462C195.667 139.297 195.39 137.959 195.39 136.458C195.39 130.571 201.096 127.301 207.181 127.301C209.538 127.301 212.343 127.63 214.535 128.407L215.575 137.845H214.37L209.703 131.073C208.551 129.351 207.512 129.297 206.088 129.297C203.501 129.297 201.64 130.798 201.64 133.355C201.64 135.681 203.064 137.403 205.869 138.013L208.226 138.514C214.151 139.793 216.674 143.123 216.674 147.402Z" fill="black"/>
<path d="M241.472 154.456V156.231H209.197C210.583 155.805 211.837 155.206 212.882 154.445L227.478 154.337C229.398 154.17 229.681 154.116 229.681 152.119V136.41L225.505 132.417V132.082L237.798 126.858V152.13C237.798 154.126 238.075 154.18 240 154.348L241.472 154.456Z" fill="black"/>
<path d="M258.762 146.29L255.413 150.343L270.121 151.563C277.806 152.232 279.502 154.504 279.502 157.893C279.502 164.39 270.446 170.72 258.431 170.72C252.122 170.72 248.773 168.108 248.773 165C248.773 161.67 252.89 159.501 257.61 158.556C255.194 157.612 251.189 154.946 249.653 153.894L256.73 145.567C252.997 143.9 250.746 140.738 250.746 137.127C250.746 131.742 255.796 127.301 263.092 127.301C266.766 127.301 269.785 128.412 271.982 130.134L274.398 125.358H282.189L279.39 130.857H272.75C274.398 132.524 275.331 134.634 275.331 136.966C275.331 142.351 270.281 146.792 262.932 146.792C261.449 146.792 260.02 146.625 258.762 146.29ZM272.809 162.226C272.809 159.614 269.241 158.837 263.044 158.837C256.57 158.837 254.538 161.228 254.538 163.392C254.538 165.836 256.292 168.059 261.449 168.059C266.884 168.059 272.809 165.394 272.809 162.226ZM267.705 139.572C267.705 134.294 265.508 129.076 261.721 129.076C259.908 129.076 258.538 130.63 258.538 134.462C258.538 139.68 260.735 144.898 264.575 144.898C266.334 144.904 267.705 143.349 267.705 139.572Z" fill="black"/>
<path d="M288.392 154.456L289.874 154.348C291.794 154.18 292.071 154.126 292.071 152.124V136.41L287.901 132.411V132.077L300.193 126.858V133.965C301.399 129.913 304.145 127.301 308.534 127.301C312.982 127.301 316.326 129.686 316.326 137.684V152.119C316.326 154.121 316.598 154.175 318.518 154.342L320 154.45V156.226H305.126V154.45L306.172 154.342C308.092 154.121 308.204 154.121 308.204 152.119V139.238C308.204 133.464 306.668 132.185 304.47 132.185C302.279 132.185 300.188 133.518 300.188 139.292V152.119C300.188 154.121 300.3 154.121 302.22 154.342L303.26 154.45V156.226H288.392V154.456Z" fill="black"/>
<path d="M28.0035 31.8872C27.2675 36.3932 25.4863 39.5608 22.8305 41.5197C21.7639 42.313 20.5693 42.9174 19.2307 43.3221C17.6735 43.8078 15.9349 44.0452 14.0524 44.0452C5.26365 44.0452 0 37.6559 0 29.6531C0 20.2148 7.30085 14.3813 15.3217 14.3813C20.9746 14.3813 26.2489 16.7126 26.2489 21.1592C26.2489 23.485 24.9317 25.1525 21.1933 25.1525C20.372 25.1525 19.4387 25.0985 18.3988 24.9312C18.8894 18.8765 17.0815 16.2701 14.0577 16.2701C11.2633 16.2701 8.12746 18.9844 8.12746 25.9835C8.12746 32.9287 11.7006 38.7136 17.8495 38.7136C21.3586 38.7136 25.3157 36.6036 26.4089 31.8818H28.0035V31.8872Z" fill="black"/>
<path d="M57.8524 14.7754V23.0481L54.9352 22.6595C49.229 21.8824 47.7464 23.4366 47.7464 25.9405V39.2157C47.7464 41.2231 48.349 41.2231 50.2689 41.3256L53.074 41.4929V43.3223H19.231C20.5695 42.9176 21.7641 42.3132 22.8307 41.5199L37.4271 41.439C39.3469 41.2717 39.6189 41.2177 39.6189 39.2103V23.4906L35.4432 19.4972V19.1627L47.7411 13.939V23.5553C49.277 17.0473 52.9567 14.7808 57.2978 14.7808H57.8524V14.7754Z" fill="black"/>
<path d="M89.6206 39.6634L90.0206 23.5228L90.0579 22.1629C90.0686 21.8877 90.0686 21.6341 90.0579 21.375C89.866 16.1406 86.1115 14.268 81.5518 14.268C77.7068 14.268 75.0189 15.2124 72.5444 16.1621C68.982 17.549 65.5742 19.4431 65.5742 21.7744C65.5742 23.1613 66.7795 24.8341 69.7499 24.8341C70.7365 24.8341 71.9418 24.7208 73.4297 24.3808C72.2138 19.4917 73.9203 16.2755 78.0427 16.2755C80.8372 16.2755 82.4904 18.3261 82.4904 20.8786C82.4904 23.7171 81.8878 25.6004 76.1762 27.7104C71.8458 29.3185 65.7449 31.0454 65.7449 36.3284C65.7449 40.4405 69.4726 44.0453 74.6883 44.0453C77.8774 44.0453 80.6719 42.7717 82.1545 38.9889L83.2531 43.9373L93.903 41.4334V39.658H89.6206V39.6634ZM81.9838 34.607C81.9305 38.9889 80.0639 40.6617 78.4214 40.6617C76.1175 40.6617 74.7949 37.7207 74.7949 35.1574C74.7949 32.3297 76.0642 30.047 79.0773 28.1583C80.3466 27.3812 80.9972 26.9981 82.0478 26.1077L81.9838 34.607Z" fill="black"/>
<path d="M156.917 79.6775C156.917 70.4551 164.112 64.6216 171.247 64.6216C178.164 64.6216 183.161 68.399 184.644 76.008H165.152C165.205 83.2877 169.05 88.9539 175.311 88.9539C178.932 88.9539 182.942 86.8439 184.041 82.1221H185.63C184.366 90.2328 179.204 94.2855 171.413 94.2855C162.357 94.2855 156.917 87.9016 156.917 79.6775ZM165.264 73.6767H175.642C175.476 68.507 173.663 66.5103 170.922 66.5103C167.845 66.5157 165.76 69.1222 165.264 73.6767Z" fill="black"/>
<path d="M194.121 79.6775C194.121 70.4551 201.315 64.6216 208.45 64.6216C215.367 64.6216 220.364 68.399 221.847 76.008H202.355C202.408 83.2877 206.253 88.9539 212.514 88.9539C216.135 88.9539 220.146 86.8439 221.244 82.1221H222.839C221.575 90.2328 216.412 94.2855 208.621 94.2855C199.56 94.2855 194.121 87.9016 194.121 79.6775ZM202.467 73.6767H212.845C212.679 68.507 210.866 66.5103 208.125 66.5103C205.048 66.5157 202.963 69.1222 202.467 73.6767Z" fill="black"/>
<path d="M267.353 65.6796C265.065 66.5916 263.188 68.0864 262.153 70.0884L243.13 69.9535V85.058C243.13 89.2294 244.501 90.395 246.975 90.395C248.677 90.395 250.101 89.6719 251.423 88.7869L252.303 90.2278C250.154 92.0032 246.309 93.9513 242.309 93.9513C237.915 93.9513 235.008 92.845 235.008 86.9521V69.9535H229.462V69.619L242.746 58.5078H243.13V65.6742H267.353V65.6796Z" fill="black"/>
<path d="M137.132 113.011L145.26 110.27V75.0098C145.26 67.0123 141.91 64.6217 137.463 64.6217C133.18 64.6217 130.162 67.1202 128.845 71.4535C127.965 66.2838 125.058 64.6217 121.325 64.6217C116.931 64.6217 114.19 67.2336 112.979 71.2863V64.1738L100.681 69.3975V69.7321L104.857 73.7308V89.4559C104.857 91.4526 104.58 91.5065 102.66 91.6738L101.177 91.7871V93.5679H116.056V91.7871L115.011 91.6738C113.091 91.4526 112.979 91.4526 112.979 89.4559V76.6233C112.979 70.8438 115.07 69.5109 117.261 69.5109C119.459 69.5109 120.994 70.7898 120.994 76.5693V89.4613C120.994 91.458 120.882 91.458 118.963 91.6792L117.917 91.7925V93.5733H132.194V91.7925L131.148 91.6792C129.229 91.458 129.117 91.458 129.117 89.4613V76.6287C129.117 70.8492 131.202 69.5162 133.399 69.5162C135.596 69.5162 137.132 70.7952 137.132 76.5747V113.011Z" fill="black"/>
<path d="M132.903 15.4391L128.189 19.3838V19.7184H112.99V62.8085L104.868 66.273V19.7184H101.188V17.943C103.662 17.6678 105.252 16.1676 106.404 12.7786C109.593 3.4375 113.427 0 120.739 0H122.493V7.72762H114.035C110.515 7.72762 109.31 8.77992 109.31 10.8413C109.31 12.7247 110.462 14.2249 112.937 15.4444H132.903V15.4391Z" fill="black"/>
<path d="M145.697 40.2248C143.228 40.2248 141.852 39.0592 141.852 34.8931V21.4399H133.725V36.7819C133.725 42.6747 136.636 43.781 141.025 43.781C145.03 43.781 148.876 41.8383 151.019 40.0575L150.139 38.6112C148.822 39.5071 147.398 40.2248 145.697 40.2248Z" fill="black"/>
<path d="M319.995 21.375V23.5228H90.0205L90.0578 22.1629C90.0685 21.8877 90.0685 21.634 90.0578 21.375H319.995Z" fill="black"/>
<path d="M197.576 142.621H0.0214844V140.462H196.179C196.531 141.267 197 141.984 197.576 142.621Z" fill="black"/>
<path d="M282.589 84.7338C282.589 90.3461 277.262 94.2908 270.126 94.2908C267.438 94.2908 265.022 93.9023 262.116 92.9579L261.236 83.0664H262.441L266.617 89.9629C268.099 92.4021 269.475 92.1809 271.065 92.1809C273.587 92.1809 275.79 90.6807 275.79 88.1228C275.79 85.9049 274.526 84.178 271.561 83.5196L268.654 82.8505C264.201 81.8522 261.289 78.6359 261.289 73.8008C261.289 72.4193 261.604 71.1835 262.164 70.0988C263.193 68.0914 265.07 66.5966 267.363 65.69C269.113 64.9993 271.086 64.6377 273.102 64.6377C275.459 64.6377 278.264 64.9669 280.456 65.7439L281.496 75.193H280.291L275.624 68.4152C274.472 66.6937 273.432 66.6398 271.998 66.6398C269.422 66.6398 267.55 68.1399 267.55 70.6978C267.55 73.0291 268.974 74.7451 271.779 75.3657L274.136 75.8622C280.067 77.1249 282.589 80.4545 282.589 84.7338Z" fill="black"/>
<path d="M152.838 15.4389L150.198 19.7182H128.184V19.3782L132.903 15.4389L141.473 8.26709H141.857V15.4389H152.838Z" fill="black"/>
</svg>
